<?xml version="1.0" standalone="no"?>
<!DOCTYPE svg PUBLIC "-//W3C//DTD SVG 20010904//EN"
 "http://www.w3.org/TR/2001/REC-SVG-20010904/DTD/svg10.dtd">
<svg version="1.0" xmlns="http://www.w3.org/2000/svg"
 width="545.000000pt" height="545.000000pt" viewBox="0 0 545.000000 545.000000"
 preserveAspectRatio="xMidYMid meet">
<metadata>
Created by potrace 1.16, written by Peter Selinger 2001-2019
</metadata>
<g transform="translate(0.000000,545.000000) scale(0.100000,-0.100000)"
fill="#000000" stroke="none">
<path d="M2375 4999 c-113 -17 -122 -19 -122 -32 0 -9 43 -12 172 -13 267 -2
511 -50 735 -144 41 -18 80 -33 85 -34 24 -5 145 -72 204 -113 35 -24 66 -41
70 -38 9 10 -82 90 -167 147 -130 88 -307 166 -450 199 -161 37 -385 49 -527
28z"/>
<path d="M2200 4844 c-19 -8 -53 -32 -75 -53 -28 -26 -56 -41 -95 -51 -75 -18
-191 -68 -272 -117 l-66 -41 -28 29 c-15 16 -34 29 -41 29 -22 0 -152 -130
-218 -219 -69 -92 -170 -284 -205 -390 -68 -207 -68 -425 1 -569 27 -56 107
-142 167 -181 64 -41 166 -78 226 -82 44 -4 49 -2 52 19 3 20 0 22 -35 22
-116 0 -293 107 -357 215 -31 54 -64 183 -64 254 0 260 139 576 348 791 l82
85 33 -39 33 -39 48 36 c104 80 293 167 362 167 14 0 36 14 56 36 47 53 82 64
195 64 315 0 685 -91 986 -241 112 -56 157 -102 157 -159 0 -13 31 -54 79
-104 82 -86 157 -192 190 -269 24 -56 33 -62 71 -42 17 9 35 13 40 10 24 -15
80 -245 80 -331 0 -32 4 -44 15 -44 8 0 15 -8 16 -17 0 -14 3 -12 9 5 12 29
-3 148 -35 269 -23 85 -58 173 -71 173 -2 0 -21 -7 -41 -15 -20 -8 -37 -14
-38 -13 -2 2 -16 31 -33 64 -41 82 -140 212 -197 258 -28 23 -45 46 -45 59 -1
37 -35 101 -70 131 -62 52 -318 165 -475 211 -33 9 -71 21 -85 26 -54 18 -227
50 -348 64 -164 19 -306 19 -352 -1z"/>
<path d="M2189 4735 c-12 -19 -25 -35 -30 -35 -5 0 -26 -17 -47 -38 -28 -30
-53 -43 -105 -57 -37 -10 -72 -24 -78 -31 -6 -8 -18 -14 -26 -14 -21 0 -111
-48 -183 -97 l-64 -45 -26 31 c-15 17 -32 31 -38 31 -7 0 -52 -39 -100 -88
-71 -71 -96 -105 -138 -187 -63 -121 -96 -212 -119 -323 -14 -70 -15 -92 -4
-135 15 -65 50 -136 89 -180 38 -44 143 -112 210 -138 60 -23 177 -34 239 -22
39 7 46 13 57 43 12 34 13 34 13 8 1 -35 8 -35 68 -2 68 37 109 69 183 143 74
73 187 150 257 177 35 13 80 18 168 19 66 0 126 4 133 9 7 4 12 2 12 -7 0 -14
121 -91 155 -99 11 -2 19 -10 18 -16 -2 -7 13 -33 33 -59 50 -65 87 -144 119
-248 33 -109 70 -184 122 -251 39 -48 103 -100 133 -106 8 -2 20 -8 28 -15 36
-34 206 -53 304 -34 81 16 170 64 230 124 39 39 52 61 73 130 70 221 71 468 4
641 -27 67 -31 71 -67 52 -17 -9 -35 -16 -41 -16 -5 0 -23 29 -39 65 -43 90
-84 148 -168 235 -51 53 -75 87 -83 115 -6 22 -17 49 -25 60 -9 11 -16 32 -16
48 0 39 -26 60 -147 120 -306 153 -612 227 -943 227 l-141 0 -20 -35z m481
-90 c192 -34 342 -82 517 -166 136 -64 150 -79 137 -154 -12 -77 -37 -105 -89
-105 -19 0 -885 213 -958 236 -10 3 -25 17 -34 30 -14 22 -14 32 -3 81 7 34
22 66 37 81 25 25 25 25 167 19 77 -4 179 -13 226 -22z m-939 -381 c60 -14
109 -29 109 -33 0 -5 -6 -28 -14 -54 -15 -52 -8 -67 34 -67 14 0 35 -7 47 -15
l21 -15 -27 -107 c-30 -119 -27 -116 -112 -99 l-37 8 -12 -51 c-7 -28 -16 -53
-20 -56 -11 -7 -210 41 -221 52 -4 4 -3 27 3 50 14 56 7 71 -39 79 -50 9 -64
21 -57 49 3 13 1 26 -5 29 -6 4 -4 13 8 25 9 9 24 46 31 80 l13 63 41 -7 c82
-13 79 -14 95 43 7 28 18 52 23 52 5 0 59 -12 119 -26z m1019 -335 c0 -5 -7
-9 -15 -9 -10 0 -14 -10 -12 -31 2 -26 9 -35 50 -56 28 -14 56 -21 68 -18 14
5 17 2 13 -8 -4 -10 13 -28 53 -54 95 -64 153 -80 215 -59 l43 15 -24 -20
c-17 -14 -38 -19 -80 -19 -61 0 -119 23 -215 84 -87 56 -135 78 -157 71 -10
-4 -19 -2 -19 3 0 15 -80 34 -139 32 -80 -3 -252 2 -216 7 79 9 95 14 95 30 0
15 2 15 18 0 12 -11 43 -16 116 -18 83 -2 100 0 111 14 15 21 29 22 21 1 -9
-22 16 -12 29 12 19 36 26 44 36 39 5 -4 9 -10 9 -16z m785 -194 c32 -31 32
-75 1 -111 -49 -57 -146 -22 -146 53 0 74 92 111 145 58z m202 -44 c39 -24 51
-67 29 -109 -17 -33 -34 -42 -79 -42 -69 0 -105 91 -54 137 40 37 61 40 104
14z m-255 -169 c10 -9 20 -32 24 -50 6 -28 2 -37 -29 -66 -32 -30 -35 -38 -30
-70 4 -24 2 -36 -6 -36 -6 0 -11 9 -11 21 0 16 -4 19 -21 14 -19 -6 -20 -5 -8
16 8 16 9 24 1 27 -6 2 -22 12 -36 23 -46 36 -28 131 27 142 33 7 70 -2 89
-21z m212 -53 c20 -16 26 -29 26 -59 0 -55 -27 -85 -79 -85 -48 0 -77 24 -87
72 -5 27 -1 37 24 63 36 36 77 39 116 9z"/>
<path d="M1605 4205 c-9 -30 -17 -55 -18 -55 -1 0 -26 7 -55 14 -40 11 -54 12
-58 3 -18 -51 -32 -111 -27 -123 3 -8 0 -21 -7 -29 -17 -20 -6 -31 37 -39 62
-10 69 -18 54 -64 -22 -65 -15 -74 69 -94 108 -25 106 -25 120 32 7 28 15 52
20 55 4 2 31 -2 59 -9 38 -10 54 -10 56 -2 16 45 43 171 39 178 -3 4 -22 11
-43 14 -62 10 -65 14 -51 73 7 29 10 54 8 57 -8 8 -146 44 -168 44 -15 0 -23
-12 -35 -55z"/>
<path d="M4608 4223 c-9 -2 -20 -14 -23 -26 -4 -12 -47 -149 -97 -304 -49
-156 -86 -287 -83 -293 3 -5 2 -10 -4 -10 -6 0 -14 -15 -19 -32 -5 -18 -51
-163 -101 -322 -51 -158 -90 -290 -88 -293 3 -2 8 5 12 16 3 12 11 21 16 21 5
0 9 11 9 24 0 13 11 48 24 77 13 30 41 92 61 139 21 47 45 93 53 103 24 28
132 279 125 291 -3 6 -2 8 2 4 11 -10 77 141 68 156 -3 6 -3 8 2 4 10 -9 47
70 39 83 -3 5 -1 9 4 9 13 0 33 50 26 63 -4 7 -3 9 1 5 11 -10 87 161 78 175
-3 6 -1 7 5 3 11 -6 19 22 25 84 2 24 0 25 -58 27 -33 0 -68 -1 -77 -4z"/>
<path d="M625 4051 c-63 -4 -90 -10 -89 -18 1 -7 2 -19 3 -26 0 -8 11 -13 22
-13 28 1 34 -17 14 -38 -15 -15 -14 -25 21 -129 20 -61 44 -117 52 -123 8 -6
12 -16 8 -22 -7 -12 111 -360 131 -383 7 -8 13 -26 13 -38 0 -39 93 -289 106
-284 19 7 44 -26 44 -58 0 -16 -4 -29 -10 -29 -10 0 -14 13 -11 37 1 6 -3 14
-9 18 -6 4 -10 -9 -10 -34 0 -34 3 -39 18 -34 9 3 14 3 10 -1 -7 -8 27 -115
40 -128 5 -5 87 -4 183 2 96 5 289 14 429 20 140 6 284 13 320 15 l65 5 -37
-33 c-101 -88 -61 -242 111 -420 62 -66 97 -90 113 -80 4 2 -8 26 -27 52 -19
27 -35 55 -35 63 0 9 -8 33 -17 54 -19 44 -34 156 -19 147 5 -4 7 3 4 15 -4
12 -2 20 3 16 9 -5 13 11 9 31 -1 6 1 7 5 4 3 -4 23 11 43 32 29 31 61 49 142
81 58 22 128 44 156 48 27 4 173 8 324 9 195 0 276 4 281 12 4 6 11 9 16 6 5
-3 15 -2 22 2 7 4 -122 11 -286 15 -164 4 -300 9 -302 11 -2 3 10 20 28 40 64
73 101 182 101 297 l0 69 28 -3 c25 -3 27 0 30 36 2 28 12 47 33 67 36 33 37
52 4 85 -19 18 -24 31 -19 50 3 13 9 24 13 24 19 0 151 -146 151 -168 0 -6 4
-12 8 -14 4 -1 25 -57 47 -123 51 -159 73 -208 127 -281 88 -118 228 -184 389
-184 164 0 277 51 378 172 117 138 182 332 193 577 3 53 0 64 -14 66 -14 3
-18 -9 -23 -63 -32 -333 -111 -524 -264 -636 -75 -55 -146 -76 -261 -76 -157
0 -275 54 -358 163 -53 69 -74 114 -107 222 -60 199 -159 337 -289 400 -143
70 -270 71 -428 2 -27 -11 -48 -27 -48 -34 0 -16 5 -16 28 -3 18 11 169 60
183 60 14 0 11 -36 -3 -48 -7 -5 -24 -12 -38 -14 -33 -4 -49 -48 -30 -83 11
-21 12 -32 2 -58 -19 -49 -19 -50 14 -60 28 -8 32 -15 38 -54 15 -112 -33
-253 -115 -334 -84 -85 -90 -86 -354 -78 -126 4 -371 10 -544 14 -284 6 -313
5 -302 -9 7 -9 35 -19 62 -22 40 -5 47 -9 38 -20 -6 -8 -9 -23 -6 -34 6 -24
-6 -26 -30 -5 -60 51 -92 75 -104 75 -19 0 -83 40 -75 47 3 3 21 -2 40 -11 42
-20 46 -20 46 0 0 9 -59 266 -130 572 -92 391 -136 561 -147 570 -9 6 -26 11
-37 10 -12 -1 -61 -4 -111 -7z"/>
<path d="M2100 3482 c-31 -26 -81 -72 -111 -102 -66 -66 -146 -114 -214 -132
-57 -14 -75 -25 -75 -44 0 -17 19 -18 57 -3 15 7 38 13 49 15 65 8 170 87 296
221 31 33 64 63 73 67 18 6 11 26 -8 26 -7 0 -37 -22 -67 -48z"/>
<path d="M3134 1673 c-3 -10 -12 -35 -20 -56 -8 -20 -14 -50 -14 -66 0 -29
-28 -123 -136 -454 -31 -93 -53 -175 -50 -183 4 -11 19 -14 57 -12 51 3 53 4
80 53 15 28 28 62 28 77 1 14 16 75 35 135 18 59 37 123 41 141 12 56 34 35
67 -63 16 -49 30 -108 31 -130 2 -40 2 -40 -46 -52 -58 -14 -91 -34 -114 -69
-16 -25 -16 -27 3 -41 25 -18 81 -9 140 24 50 28 68 22 79 -27 3 -15 15 -36
25 -45 17 -15 23 -16 62 -3 30 10 44 21 46 35 2 11 -17 76 -42 144 -24 68 -61
171 -80 229 -20 58 -45 128 -56 155 -10 28 -22 67 -25 87 -3 22 -14 42 -25 48
-10 5 -21 23 -25 40 -4 17 -15 35 -25 40 -25 14 -30 13 -36 -7z"/>
<path d="M1067 1663 c-4 -3 -24 -9 -44 -12 l-38 -6 0 -384 c0 -210 2 -384 5
-386 7 -4 123 19 136 27 11 7 171 218 262 345 29 40 52 79 52 86 0 7 -16 29
-36 48 -20 18 -74 77 -120 130 -112 128 -189 181 -217 152z m137 -248 c62 -68
77 -90 72 -108 -7 -29 -143 -211 -160 -215 -10 -2 -14 34 -19 161 -6 178 -1
247 18 247 6 0 47 -38 89 -85z"/>
<path d="M1655 1583 c-35 -48 -81 -115 -100 -148 -20 -33 -42 -69 -48 -80 -7
-11 -20 -31 -29 -44 -26 -35 -23 -48 25 -105 24 -28 57 -71 75 -96 17 -25 61
-83 99 -130 l68 -85 54 -3 c30 -2 58 1 63 6 13 13 -24 76 -97 167 -31 39 -61
79 -67 90 -6 11 -29 42 -52 68 l-40 48 29 57 c27 54 122 194 172 255 13 16 23
32 23 37 0 10 -76 50 -95 50 -9 0 -44 -39 -80 -87z"/>
<path d="M2478 1660 c-61 -11 -68 -16 -68 -49 0 -40 16 -49 90 -53 l65 -3 5
-330 5 -330 49 -3 c27 -2 53 1 58 6 6 6 10 125 10 283 0 151 3 294 7 319 l6
45 85 5 84 5 10 34 c15 51 -2 57 -166 64 -79 4 -154 9 -168 11 -14 2 -46 1
-72 -4z"/>
<path d="M3962 1656 c-52 -19 -55 -27 -32 -87 12 -30 35 -78 51 -107 16 -30
42 -88 58 -129 l30 -75 -80 -163 c-43 -89 -79 -167 -79 -173 0 -6 20 -21 45
-33 35 -18 47 -20 59 -10 8 7 36 62 62 122 28 64 53 109 62 109 7 0 26 -28 40
-62 15 -35 41 -90 58 -123 26 -51 34 -60 54 -57 29 3 70 39 70 61 0 8 -34 82
-75 165 l-75 151 58 130 c32 72 67 154 78 184 l19 53 -24 19 c-33 27 -70 35
-86 18 -7 -8 -24 -45 -38 -84 -43 -120 -59 -155 -71 -155 -6 0 -37 57 -68 128
-30 70 -62 128 -69 128 -8 1 -29 -4 -47 -10z"/>
<path d="M1978 1653 c-2 -4 0 -118 4 -253 5 -135 6 -293 3 -351 l-6 -106 31
-27 c36 -30 43 -31 60 -11 7 8 22 15 34 16 11 0 75 19 141 43 l120 43 -2 42
c-2 48 -17 71 -44 71 -9 0 -55 -14 -100 -30 -45 -17 -88 -29 -96 -26 -10 4
-13 49 -14 203 -1 109 -4 241 -8 293 l-6 95 -57 3 c-31 2 -58 -1 -60 -5z"/>
<path d="M1693 1344 c-32 -14 -53 -40 -53 -67 0 -18 67 -104 87 -112 21 -8 83
52 83 80 0 26 -57 115 -73 114 -7 0 -26 -7 -44 -15z"/>
</g>
</svg>
